<svg width="28" height="20" viewBox="0 0 28 20" fill="none" xmlns="http://www.w3.org/2000/svg">
<path fill-rule="evenodd" clip-rule="evenodd" d="M27.1672 0.66039C27.2554 0.589347 27.3063 0.48446 27.3063 0.373906C27.3063 0.167403 27.1321 0 26.9173 0H0.910151C0.576639 0 0.306274 0.259874 0.306274 0.580445C0.306274 0.753004 0.38615 0.916616 0.524231 1.02689L13.2027 11.1525C13.479 11.3731 13.8799 11.3722 14.1551 11.1503L27.1672 0.66039ZM1.5243 3.99249C1.04009 3.60578 0.306274 3.93677 0.306274 4.54188V19.2857C0.306274 19.6802 0.63898 20 1.04939 20H26.5632C26.9736 20 27.3063 19.6802 27.3063 19.2857V4.25491C27.3063 3.64825 26.5692 3.31778 26.0856 3.70763L14.2395 13.2575L14.1603 13.3214C13.8851 13.5433 13.4842 13.5442 13.2079 13.3235L13.1284 13.26L1.5243 3.99249Z" fill="white"/>
</svg>
