<svg width="128" height="66" viewBox="0 0 128 66" fill="none" xmlns="http://www.w3.org/2000/svg">
<path fill-rule="evenodd" clip-rule="evenodd" d="M74.7584 10.6372H68.3964C68.3908 8.70061 67.8733 7.09889 63.9807 7.09889H60.51V19.8959C58.5074 19.8959 56.6568 19.0755 55.3574 17.7584C54.2773 16.4301 53.5573 14.8117 53.3267 13.037C53.2704 12.6351 53.2479 12.2277 53.2479 11.8092V0H63.9807C73.0372 0 74.7472 4.80515 74.7584 10.6372Z" fill="black"/>
<path fill-rule="evenodd" clip-rule="evenodd" d="M74.7018 23.8862V34.5346H62.4559C57.3652 34.5346 53.2419 30.4438 53.2419 25.3931V22.5133H60.504V25.4098C60.6277 26.6599 61.2409 27.4301 63.9691 27.4301H68.3286L68.3061 23.8806C68.3061 21.9441 65.921 19.9852 63.9691 19.9852V13.2435C69.8698 13.2435 74.7018 18.0375 74.7018 23.8862Z" fill="black"/>
<path d="M5.13575 48.7045V48.5873C6.04702 48.4645 6.73329 47.6887 6.73329 46.7791C6.73329 45.4508 5.72077 44.6527 4.01072 44.6527H0V53.1748H4.12885C5.65326 53.1748 6.71641 52.5106 7.0258 51.4335C7.03142 51.4279 7.03142 51.4224 7.03142 51.4168C7.0933 51.1991 7.12705 50.9647 7.12705 50.7136C7.13267 49.6309 6.26078 48.7603 5.13575 48.7045ZM2.18818 46.1819H3.42571C4.16823 46.1819 4.60136 46.5447 4.60136 47.153C4.60136 47.7557 4.13448 48.1241 3.33571 48.1241H2.18818V46.1819ZM4.43823 51.4335C4.2076 51.573 3.89822 51.6456 3.51009 51.6456H2.18818V49.4411H3.49321C4.39886 49.4411 4.90512 49.8374 4.90512 50.5294C4.90512 50.9257 4.75324 51.227 4.47198 51.4112C4.46073 51.4168 4.44948 51.4279 4.43823 51.4335Z" fill="black"/>
<path d="M8.6908 44.6527V46.394H14.5747V44.6527H8.6908ZM8.6908 48.0961V49.6923H14.3609V48.0961H8.6908ZM8.6908 51.4335V53.1748H14.5747V51.4335H8.6908Z" fill="black"/>
<path d="M20.048 44.6472H16.4423V53.1748H20.048C22.6355 53.1748 24.0643 51.6233 24.0643 48.8217C24.0643 46.1652 22.6074 44.6472 20.048 44.6472ZM19.6542 51.4335H18.6248V46.3884H19.6542C21.0267 46.3884 21.8368 47.2758 21.8368 48.8663C21.8368 50.5573 21.0717 51.4335 19.6542 51.4335Z" fill="black"/>
<path d="M29.29 44.6472H25.6843V53.1748H29.29C31.8776 53.1748 33.3064 51.6233 33.3064 48.8217C33.3064 46.1652 31.8495 44.6472 29.29 44.6472ZM28.8963 51.4335H27.8669V46.3884H28.8963C30.2688 46.3884 31.0788 47.2758 31.0788 48.8663C31.0845 50.5573 30.3194 51.4335 28.8963 51.4335Z" fill="black"/>
<path d="M34.9321 44.6527V53.1748H37.1146V44.6527H34.9321Z" fill="black"/>
<path d="M44.5736 44.6527V49.4523H44.4611L40.8835 44.6527H39.1341V53.1748H41.2041V48.3305H41.3223L44.9111 53.1748H46.6437V44.6527H44.5736Z" fill="black"/>
<path d="M52.7188 48.5259V50.016H54.2882L54.2826 50.1555C54.2319 51.0205 53.5344 51.5954 52.5444 51.5954C51.2956 51.5954 50.4912 50.5685 50.4912 48.883C50.4912 47.2199 51.2169 46.2265 52.4375 46.2265C53.2925 46.2265 53.9394 46.6842 54.1532 47.432H56.3076C56.0939 45.6294 54.5357 44.4183 52.4375 44.4183C49.8556 44.4183 48.2637 46.1317 48.2637 48.8998C48.2637 51.707 49.85 53.4036 52.4938 53.4036C54.9238 53.4036 56.3976 51.9693 56.3976 49.6253V48.5259H52.7188Z" fill="black"/>
<path d="M65.381 48.1129L64.2784 47.8952C63.3728 47.7222 62.9903 47.4488 62.9903 46.98C62.9903 46.4107 63.4965 46.0535 64.2616 46.0535C65.0322 46.0535 65.606 46.4721 65.6566 47.0693H67.676C67.6366 45.4954 66.2472 44.4128 64.2334 44.4128C62.1634 44.4128 60.8134 45.5066 60.8134 47.1697C60.8134 48.5147 61.6234 49.363 63.1928 49.6588L64.3234 49.882C65.3078 50.0718 65.6791 50.3285 65.6791 50.8029C65.6791 51.3665 65.1166 51.7516 64.3066 51.7516C63.4009 51.7516 62.7765 51.3554 62.7259 50.7359H60.639C60.6784 52.3767 62.0453 53.398 64.2222 53.398C66.4666 53.398 67.8392 52.3209 67.8392 50.5461C67.8392 49.2012 67.0798 48.4366 65.381 48.1129Z" fill="black"/>
<path d="M73.3237 44.4183C70.7418 44.4183 69.0823 46.1373 69.0823 48.911C69.0823 51.6847 70.7305 53.4036 73.3237 53.4036C75.9113 53.4036 77.5482 51.6847 77.5482 48.911C77.5482 46.1373 75.9056 44.4183 73.3237 44.4183ZM73.3237 51.6121C72.103 51.6121 71.3099 50.5629 71.3099 48.911C71.3099 47.2702 72.1143 46.2154 73.3237 46.2154C74.5218 46.2154 75.3262 47.2646 75.3262 48.911C75.3262 50.5573 74.5331 51.6121 73.3237 51.6121Z" fill="black"/>
<path d="M84.3883 44.6527V50.0048C84.3883 50.9982 83.8482 51.5842 82.8807 51.5842C81.9076 51.5842 81.3619 50.9982 81.3619 50.0048V44.6527H79.1794V50.2336C79.1794 52.1479 80.6532 53.4092 82.8807 53.4092C85.1139 53.4092 86.5764 52.1535 86.5764 50.2336V44.6527H84.3883Z" fill="black"/>
<path d="M94.1255 49.8709C95.0705 49.4635 95.5936 48.5091 95.5936 47.4599C95.5936 45.7019 94.3898 44.6527 92.3817 44.6527H88.6016V53.1748H90.7841V50.1946H91.9148L93.3886 53.1748H95.8355L94.1255 49.8709ZM92.0779 48.6598H90.7841V46.2879H92.0723C92.8542 46.2879 93.3604 46.7512 93.3604 47.4767C93.3604 48.2189 92.8823 48.6598 92.0779 48.6598Z" fill="black"/>
<path d="M102.856 50.0774C102.732 50.9926 102.029 51.5954 101.089 51.5954C99.8912 51.5954 99.1543 50.5685 99.1543 48.8998C99.1543 47.2423 99.8912 46.2265 101.084 46.2265C102.023 46.2265 102.732 46.8572 102.844 47.7836H104.943C104.875 45.8526 103.238 44.4239 101.078 44.4239C98.4962 44.4239 96.9211 46.1261 96.9211 48.9165C96.9211 51.6958 98.5018 53.4092 101.078 53.4092C103.283 53.4092 104.875 52.0307 104.948 50.0829H102.856V50.0774Z" fill="black"/>
<path d="M106.529 44.6527V53.1748H108.711V44.6527H106.529Z" fill="black"/>
<path d="M116.17 44.6527V49.4523H116.058L112.48 44.6527H110.731V53.1748H112.801V48.3305H112.919L116.508 53.1748H118.24V44.6527H116.17Z" fill="black"/>
<path d="M124.321 48.5259V50.016H125.891L125.885 50.1555C125.834 51.0205 125.137 51.5954 124.147 51.5954C122.898 51.5954 122.094 50.5685 122.094 48.883C122.094 47.2199 122.819 46.2265 124.04 46.2265C124.895 46.2265 125.542 46.6842 125.756 47.432H127.91C127.696 45.6294 126.138 44.4183 124.04 44.4183C121.458 44.4183 119.866 46.1317 119.866 48.8998C119.866 51.707 121.452 53.4036 124.096 53.4036C126.526 53.4036 128 51.9693 128 49.6253V48.5259H124.321Z" fill="black"/>
<path d="M43.3304 63.9849H39.8597V58.1975H40.4109V63.4882H43.3304V63.9849Z" fill="black"/>
<path d="M43.9548 61.8251C43.9548 60.4466 44.7142 59.5927 45.9293 59.5927C47.1443 59.5927 47.9093 60.441 47.9093 61.8251C47.9093 63.2036 47.1443 64.0575 45.9293 64.0575C44.7142 64.0575 43.9548 63.2036 43.9548 61.8251ZM47.3637 61.8251C47.3637 60.7312 46.8293 60.0671 45.9349 60.0671C45.0405 60.0671 44.5061 60.7312 44.5061 61.8251C44.5061 62.919 45.0405 63.5831 45.9349 63.5831C46.8293 63.5775 47.3637 62.919 47.3637 61.8251Z" fill="black"/>
<path d="M49.0624 59.6653H49.5686V60.3741H49.6193C49.7655 59.9053 50.2549 59.5927 50.8343 59.5927C50.9806 59.5927 51.1268 59.5983 51.2449 59.6318V60.1564C51.1493 60.1285 50.9299 60.1062 50.7724 60.1062C50.0974 60.1062 49.5968 60.614 49.5968 61.2949V63.9905H49.068V59.6653H49.0624Z" fill="black"/>
<path d="M55.5482 62.919C55.3345 63.6221 54.6651 64.0575 53.7482 64.0575C52.55 64.0575 51.8019 63.1924 51.8019 61.8251C51.8019 60.4689 52.5613 59.5927 53.7482 59.5927C54.907 59.5927 55.6213 60.4131 55.6213 61.7302V61.9646H52.3531V61.9869C52.3813 62.9636 52.9269 63.5887 53.7707 63.5887C54.3894 63.5887 54.8338 63.3431 55.0195 62.919H55.5482ZM52.3475 61.5293H55.0588C55.0476 60.6364 54.5244 60.056 53.7369 60.056C52.9494 60.056 52.3981 60.642 52.3475 61.5293Z" fill="black"/>
<path d="M56.7689 59.6653H57.2751V60.441H57.3258C57.517 59.9109 57.9783 59.5927 58.5858 59.5927C59.1933 59.5927 59.6321 59.9276 59.8177 60.441H59.8683C60.0933 59.922 60.5996 59.5927 61.2296 59.5927C62.1015 59.5927 62.6078 60.1118 62.6078 61.027V63.9849H62.079V61.1498C62.079 60.4466 61.7246 60.0671 61.0721 60.0671C60.4027 60.0671 59.9527 60.575 59.9527 61.2447V63.9849H59.4239V61.094C59.4239 60.4745 59.0245 60.0671 58.4227 60.0671C57.7926 60.0671 57.3033 60.6308 57.3033 61.334V63.9849H56.7745V59.6653H56.7689Z" fill="black"/>
<path d="M66.0673 58.3091C66.0673 58.097 66.2473 57.9185 66.461 57.9185C66.6804 57.9185 66.8604 58.097 66.8604 58.3091C66.8604 58.5268 66.6804 58.7054 66.461 58.7054C66.2473 58.6998 66.0673 58.5268 66.0673 58.3091ZM66.1966 59.6653H66.7254V63.9849H66.1966V59.6653Z" fill="black"/>
<path d="M71.9904 61.8251C71.9904 63.1701 71.2591 64.0575 70.1566 64.0575C69.4816 64.0575 68.9303 63.7226 68.6885 63.1645H68.6378V65.3969H68.1091V59.6709H68.6153V60.5527H68.666C68.9303 59.9611 69.4929 59.5983 70.1566 59.5983C71.2648 59.5927 71.9904 60.4801 71.9904 61.8251ZM71.4504 61.8251C71.4504 60.748 70.9104 60.0615 70.0497 60.0615C69.1947 60.0615 68.6322 60.7591 68.6322 61.8195C68.6322 62.8799 69.2003 63.5775 70.0497 63.5775C70.9048 63.5775 71.4504 62.9022 71.4504 61.8251Z" fill="black"/>
<path d="M74.6118 59.5927C75.4893 59.5927 76.1137 60.0281 76.2093 60.7145H75.6862C75.5905 60.3071 75.1855 60.0448 74.6061 60.0448C74.038 60.0448 73.5711 60.3573 73.5711 60.7926C73.5711 61.1498 73.8524 61.3563 74.4374 61.4902L75.0337 61.6298C75.8774 61.8307 76.2824 62.1655 76.2824 62.7906C76.2824 63.5384 75.5512 64.0575 74.6005 64.0575C73.6499 64.0575 72.9917 63.611 72.9017 62.9022H73.453C73.5711 63.3375 73.9874 63.6054 74.6174 63.6054C75.2587 63.6054 75.7368 63.2817 75.7368 62.8297C75.7368 62.4502 75.4668 62.2325 74.8818 62.093L74.2236 61.9367C73.4136 61.7414 73.0367 61.4177 73.0367 60.8038C73.0367 60.1118 73.7343 59.5927 74.6118 59.5927Z" fill="black"/>
<path d="M80.9345 63.9849H80.4283V63.2091H80.3776C80.1583 63.7449 79.6239 64.0574 78.932 64.0574C77.9645 64.0574 77.3851 63.4659 77.3851 62.4725V59.6653H77.9138V62.3385C77.9138 63.1422 78.3245 63.5719 79.067 63.5719C79.8826 63.5719 80.4058 63.0473 80.4058 62.2269V59.6597H80.9345V63.9849Z" fill="black"/>
<path d="M82.3014 59.6653H82.8077V60.441H82.8583C83.0495 59.9109 83.5164 59.5927 84.1183 59.5927C84.7258 59.5927 85.1646 59.9276 85.3502 60.441H85.4008C85.6259 59.922 86.1321 59.5927 86.7621 59.5927C87.634 59.5927 88.1403 60.1118 88.1403 61.027V63.9849H87.6115V61.1498C87.6115 60.4466 87.2571 60.0671 86.6046 60.0671C85.9352 60.0671 85.4852 60.575 85.4852 61.2447V63.9849H84.9565V61.094C84.9565 60.4745 84.5571 60.0671 83.9552 60.0671C83.3252 60.0671 82.8358 60.6308 82.8358 61.334V63.9849H82.307V59.6653H82.3014Z" fill="black"/>
</svg>
