<svg width="28" height="28" viewBox="0 0 28 28" fill="none" xmlns="http://www.w3.org/2000/svg">
<path d="M26.7566 0.866211H0.580391V27.0424H26.7566V0.866211Z" stroke="white"/>
<path fill-rule="evenodd" clip-rule="evenodd" d="M14.0293 23.2021C11.0443 20.1432 5.96713 15.801 6.23663 11.0777C6.67754 7.23765 9.99827 4.25317 14.0293 4.25317C18.0604 4.25317 21.3811 7.23765 21.822 11.0777C22.0079 16.235 17.4209 19.8037 14.0293 23.2021Z" fill="white"/>
<path d="M17.0998 12.027C17.0998 13.6371 15.8298 14.9422 14.2632 14.9422C12.6966 14.9422 11.4266 13.6371 11.4266 12.027C11.4266 10.417 12.6966 9.11182 14.2632 9.11182C15.8298 9.11182 17.0998 10.417 17.0998 12.027Z" fill="#333333"/>
</svg>
