<svg width="35" height="35" viewBox="0 0 35 35" fill="none" xmlns="http://www.w3.org/2000/svg">
<path d="M10.9134 12.5086C13.0857 18.4347 15.3346 20.7991 21.0557 23.3175L18.5763 26.7996C12.0067 23.6543 8.73444 18.3524 7.19332 14.2149L10.9134 12.5086Z" fill="white"/>
<path d="M12.7357 4.32721C13.8973 4.32267 14.7805 5.28923 14.7014 6.38369C14.5767 8.10602 14.7094 9.34865 15.0666 10.8889C15.2628 11.735 14.8189 12.5943 14.1135 13.1478C13.1627 13.8939 12.4363 14.8444 11.8589 15.6627C11.0587 16.7969 8.30488 16.7155 7.69586 15.4798C6.44425 12.9405 5.59604 8.26214 7.42375 5.10136C7.71084 4.60487 8.2889 4.3446 8.88788 4.34226L12.7357 4.32721Z" fill="white"/>
<path d="M30.3682 23.1187C30.5126 22.0302 29.6028 21.0859 28.4428 21.0285C26.6174 20.9382 25.3271 20.6644 23.7509 20.1443C22.8851 19.8586 21.9284 20.1714 21.2618 20.7662C20.3632 21.568 19.2767 22.1347 18.347 22.5776C17.0586 23.1914 16.813 25.7831 18.0386 26.5027C20.5574 27.9815 25.3732 29.3394 28.9156 28.0059C29.472 27.7964 29.8151 27.2858 29.8896 26.7245L30.3682 23.1187Z" fill="white"/>
</svg>
